HIERARCHY
ROOT Joint1
{
	OFFSET 0.000000 0.000000 0.000000
	CHANNELS 6 Xposition Yposition Zposition Xrotation Yrotation Zrotation
	JOINT Joint2
	{
		OFFSET -0.000000 0.000000 1.456275
		CHANNELS 6 Xposition Yposition Zposition Xrotation Yrotation Zrotation
		JOINT Joint3
		{
			OFFSET -0.000000 0.000002 1.471446
			CHANNELS 6 Xposition Yposition Zposition Xrotation Yrotation Zrotation
			JOINT Joint4
			{
				OFFSET 0.625745 0.000000 0.917755
				CHANNELS 6 Xposition Yposition Zposition Xrotation Yrotation Zrotation
				JOINT Joint5
				{
					OFFSET -0.629534 0.000001 0.940221
					CHANNELS 6 Xposition Yposition Zposition Xrotation Yrotation Zrotation
					JOINT Joint6
					{
						OFFSET -0.000001 0.113772 1.960660
						CHANNELS 6 Xposition Yposition Zposition Xrotation Yrotation Zrotation
						JOINT Joint7
						{
							OFFSET -0.669733 -0.113771 0.388340
							CHANNELS 6 Xposition Yposition Zposition Xrotation Yrotation Zrotation
							End Site
							{
								OFFSET 0.005509 0.005509 0.438980
							}
						}
					}
				}
			}
		}
	}
}
MOTION
Frames: 17
Frame Time: 0.041667
0.000000 0.000000 0.000000 -0.000000 1.019410 14.780826 -0.000000 -0.000000 1.456275 0.000000 -31.258251 -0.000002 -0.000000 0.000002 1.471445 -0.000001 -1.133457 24.524713 0.625744 0.000000 0.917755 -0.000035 98.701554 -0.000006 -0.629534 0.000001 0.940221 -0.000004 1.709737 46.287601 -0.000001 0.113772 1.960661 -88.303889 52.736123 -0.000005 -0.669733 -0.113771 0.388340 -0.602608 3.560964 129.180146 
0.000000 0.000000 0.000000 -0.000000 1.019410 14.412638 -0.000000 -0.000000 1.456275 -0.000000 -31.599795 0.000001 -0.000000 0.000002 1.471446 -0.000001 -1.133456 23.913367 0.625745 0.000000 0.917755 0.000004 99.605660 0.000015 -0.629534 0.000001 0.940221 -0.000001 1.709736 45.134945 -0.000001 0.113772 1.960660 -88.303889 53.663219 -0.000006 -0.669733 -0.113771 0.388340 -0.605157 3.561218 129.324099 
0.000000 0.000000 0.000000 -0.000000 1.019410 14.001128 -0.000000 -0.000000 1.456275 -0.000001 -31.981524 -0.000000 -0.000000 0.000002 1.471446 -0.000001 -1.133458 23.230083 0.625745 0.000000 0.917755 -0.000011 100.616152 -0.000003 -0.629534 0.000001 0.940221 0.000002 1.709735 43.846662 -0.000001 0.113772 1.960661 -88.303889 54.699399 -0.000005 -0.669732 -0.113771 0.388340 -0.608000 3.561496 129.484991 
0.000000 0.000000 0.000000 -0.000000 1.019410 13.517119 -0.000000 0.000000 1.456275 -0.000000 -32.430503 0.000001 -0.000000 0.000002 1.471446 -0.000000 -1.133458 22.426426 0.625745 0.000000 0.917755 -0.000003 101.804666 0.000004 -0.629534 0.000001 0.940221 -0.000000 1.709736 42.331416 -0.000001 0.113772 1.960661 -88.303889 55.918130 -0.000007 -0.669733 -0.113771 0.388340 -0.611347 3.561813 129.674229 
0.000000 0.000000 0.000000 -0.000000 1.019410 12.985417 -0.000000 0.000000 1.456275 -0.000000 -32.923721 0.000001 -0.000000 0.000002 1.471445 -0.000001 -1.133459 21.543576 0.625745 0.000000 0.917755 -0.000004 103.110291 0.000005 -0.629534 0.000001 0.940221 0.000002 1.709736 40.666871 -0.000001 0.113773 1.960660 -88.303889 57.256950 -0.000008 -0.669733 -0.113771 0.388341 -0.615023 3.562148 129.882112 
0.000000 0.000000 0.000000 -0.000000 1.019410 12.444328 -0.000000 -0.000000 1.456275 -0.000000 -33.425651 -0.000000 -0.000001 0.000002 1.471445 -0.000000 -1.133458 20.645136 0.625745 0.000000 0.917755 0.000006 104.438975 0.000003 -0.629534 0.000001 0.940221 0.000002 1.709737 38.972926 -0.000001 0.113773 1.960660 -88.303889 58.619409 -0.000003 -0.669733 -0.113771 0.388340 -0.618769 3.562479 130.093671 
0.000000 0.000000 0.000000 -0.000000 1.019410 11.922513 -0.000000 0.000000 1.456275 -0.000001 -33.909707 0.000001 -0.000000 0.000002 1.471446 -0.000000 -1.133457 19.778708 0.625744 0.000000 0.917755 -0.000003 105.720325 -0.000008 -0.629534 0.000001 0.940221 -0.000001 1.709736 37.339326 -0.000001 0.113772 1.960661 -88.303889 59.933339 -0.000008 -0.669733 -0.113771 0.388340 -0.622378 3.562778 130.297688 
0.000000 0.000000 0.000000 -0.000000 1.019410 11.410088 -0.000000 0.000000 1.456275 -0.000001 -34.385044 0.000000 -0.000000 0.000002 1.471446 0.000000 -1.133454 18.927868 0.625744 0.000001 0.917755 0.000006 106.978610 0.000006 -0.629533 0.000001 0.940221 0.000001 1.709737 35.735119 -0.000001 0.113772 1.960660 -88.303889 61.223616 -0.000007 -0.669733 -0.113771 0.388340 -0.625926 3.563064 130.498045 
0.000000 0.000000 0.000000 -0.000000 1.019410 10.887527 -0.000000 0.000000 1.456275 -0.000001 -34.869786 0.000001 -0.000000 0.000002 1.471446 0.000000 -1.133454 18.060198 0.625745 0.000000 0.917755 -0.000002 108.261797 -0.000008 -0.629534 0.000001 0.940221 -0.000003 1.709737 34.099190 -0.000001 0.113772 1.960661 -88.303896 62.539418 -0.000007 -0.669733 -0.113771 0.388339 -0.629546 3.563344 130.702363 
0.000000 0.000000 0.000000 -0.000000 1.019410 10.345198 -0.000000 0.000000 1.456275 0.000000 -35.372860 -0.000001 -0.000000 0.000002 1.471446 -0.000000 -1.133458 17.159698 0.625745 0.000000 0.917755 0.000006 109.593520 -0.000004 -0.629534 0.000001 0.940221 -0.000000 1.709734 32.401362 -0.000000 0.113772 1.960661 -88.303889 63.905005 -0.000003 -0.669733 -0.113771 0.388339 -0.633299 3.563617 130.914413 
0.000000 0.000000 0.000000 -0.000000 1.019410 9.812999 -0.000000 0.000000 1.456275 0.000000 -35.866539 0.000000 -0.000000 0.000002 1.471446 0.000000 -1.133458 16.276028 0.625745 0.000000 0.917755 0.000010 110.900368 -0.000006 -0.629534 0.000001 0.940221 -0.000001 1.709738 30.735264 -0.000002 0.113772 1.960660 -88.303889 65.245068 -0.000005 -0.669733 -0.113771 0.388340 -0.636990 3.563879 131.122488 
0.000000 0.000000 0.000000 -0.000000 1.019410 9.330727 -0.000000 -0.000000 1.456275 0.000000 -36.313906 0.000000 -0.000001 0.000002 1.471446 0.000000 -1.133463 15.475255 0.625745 0.000000 0.917755 0.000004 112.084613 -0.000004 -0.629534 0.000001 0.940220 -0.000000 1.709737 29.225457 -0.000001 0.113772 1.960660 -88.303896 66.459428 -0.000002 -0.669733 -0.113771 0.388340 -0.640328 3.564092 131.311042 
0.000000 0.000000 0.000000 -0.000000 1.019410 8.923751 -0.000000 0.000000 1.456275 -0.000000 -36.691431 0.000000 -0.000000 0.000002 1.471446 0.000000 -1.133456 14.799504 0.625745 0.000000 0.917755 0.000003 113.083966 -0.000001 -0.629534 0.000001 0.940221 -0.000002 1.709738 27.951376 -0.000001 0.113772 1.960660 -88.303896 67.484188 -0.000005 -0.669733 -0.113771 0.388340 -0.643149 3.564270 131.470172 
0.000000 0.000000 0.000000 -0.000000 1.019410 8.559772 -0.000000 0.000000 1.456275 0.000000 -37.029065 -0.000001 -0.000000 0.000002 1.471446 0.000000 -1.133457 14.195146 0.625745 0.000000 0.917754 0.000004 113.977737 -0.000005 -0.629533 0.000001 0.940221 -0.000001 1.709737 26.811901 -0.000001 0.113772 1.960660 -88.303896 68.400684 -0.000004 -0.669733 -0.113771 0.388340 -0.645675 3.564425 131.612472 
0.000000 0.000000 0.000000 -0.000000 1.019410 8.192070 -0.000000 -0.000000 1.456275 0.000001 -37.370154 -0.000000 -0.000000 0.000002 1.471446 0.000001 -1.133457 13.584605 0.625745 0.000000 0.917755 0.000002 114.880654 -0.000001 -0.629534 0.000001 0.940221 -0.000002 1.709736 25.660765 -0.000001 0.113772 1.960661 -88.303896 69.326564 -0.000008 -0.669733 -0.113771 0.388339 -0.648223 3.564573 131.756262 
0.000000 0.000000 0.000000 -0.000000 1.019410 7.773926 -0.000000 0.000000 1.456275 0.000001 -37.758037 -0.000000 -0.000000 0.000002 1.471445 -0.000000 -1.133458 12.890310 0.625745 0.000000 0.917755 0.000005 115.907436 -0.000002 -0.629533 0.000001 0.940221 -0.000002 1.709736 24.351723 -0.000001 0.113772 1.960660 -88.303896 70.379451 -0.000007 -0.669733 -0.113771 0.388340 -0.651122 3.564728 131.919749 
0.000000 0.000000 0.000000 -0.000000 1.019410 7.275934 -0.000000 -0.000000 1.456275 0.000000 -38.219993 0.000001 -0.000000 0.000002 1.471446 0.000000 -1.133458 12.063431 0.625745 0.000000 0.917755 0.000002 117.130286 -0.000002 -0.629534 0.000001 0.940221 0.000002 1.709734 22.792698 -0.000001 0.113772 1.960660 -88.303896 71.633398 -0.000007 -0.669733 -0.113771 0.388341 -0.654577 3.564914 132.114464 
